<svg xmlns="http://www.w3.org/2000/svg" xmlns:xlink="http://www.w3.org/1999/xlink" width="60" height="60" viewBox="0 0 60 60">
    <defs>
        <filter id="k39qx1jxda" width="123.3%" height="123.3%" x="-11.7%" y="-8.3%" filterUnits="objectBoundingBox">
            <feOffset dy="2" in="SourceAlpha" result="shadowOffsetOuter1"/>
            <feGaussianBlur in="shadowOffsetOuter1" result="shadowBlurOuter1" stdDeviation="2"/>
            <feColorMatrix in="shadowBlurOuter1" values="0 0 0 0 0.0562383776 0 0 0 0 0.121895047 0 0 0 0 0.209437274 0 0 0 0.12 0"/>
        </filter>
        <rect id="qjk65nw4db" width="60" height="60" x="0" y="0" rx="3"/>
    </defs>
    <g fill="none" fill-rule="evenodd">
        <g>
            <g>
                <use fill="#000" filter="url(#k39qx1jxda)" xlink:href="#qjk65nw4db"/>
                <rect width="60" height="60" fill="#FFF" opacity=".3" rx="3"/>
                <g>
                    <path d="M0 0H30V30H0z"/>
                    <path fill="#FFF" d="M15.938 7.168v-2.48c0-.518-.42-.938-.938-.938s-.937.42-.937.938v2.48c-1.391.415-2.344 1.693-2.344 3.144 0 1.452.953 2.73 2.344 3.145v11.855c0 .518.42.938.937.938.518 0 .938-.42.938-.938V13.457c1.39-.415 2.344-1.693 2.344-3.145 0-1.45-.954-2.73-2.344-3.144zM15 11.718c-.569 0-1.081-.342-1.3-.867-.217-.526-.096-1.13.306-1.533.402-.402 1.007-.522 1.532-.305.526.218.868.73.868 1.3 0 .776-.63 1.405-1.406 1.406zm11.719 7.97c-.002-1.45-.954-2.729-2.344-3.145V4.688c0-.518-.42-.938-.937-.938-.518 0-.938.42-.938.938v11.855c-1.39.415-2.344 1.693-2.344 3.145 0 1.45.953 2.73 2.344 3.144v2.48c0 .518.42.938.938.938s.937-.42.937-.938v-2.48c1.39-.416 2.342-1.694 2.344-3.145zm-3.281 1.406c-.777 0-1.407-.63-1.407-1.407 0-.776.63-1.406 1.407-1.406.776 0 1.406.63 1.406 1.407-.001.776-.63 1.405-1.406 1.406zM7.5 12.794V4.686c0-.517-.42-.937-.937-.937-.518 0-.938.42-.938.938v8.105c-1.39.415-2.344 1.693-2.344 3.145 0 1.45.953 2.73 2.344 3.144v6.23c0 .518.42.938.938.938.248 0 .487-.099.663-.275.175-.175.274-.414.274-.663v-6.23c1.39-.415 2.344-1.693 2.344-3.145 0-1.45-.953-2.73-2.344-3.144zm-.937 4.55c-.777 0-1.407-.63-1.407-1.407 0-.776.63-1.406 1.407-1.406.776 0 1.406.63 1.406 1.406-.001.777-.63 1.406-1.406 1.407z" transform="translate(15 15)"/>
                </g>
            </g>
        </g>
    </g>
</svg>
