<svg xmlns="http://www.w3.org/2000/svg" width="30" height="30" viewBox="0 0 30 30">
    <defs>
        <filter id="f0mhwsudna" width="129.5%" height="190%" x="-14.8%" y="-41.7%" filterUnits="objectBoundingBox">
            <feOffset dy="2" in="SourceAlpha" result="shadowOffsetOuter1"/>
            <feGaussianBlur in="shadowOffsetOuter1" result="shadowBlurOuter1" stdDeviation="5"/>
            <feColorMatrix in="shadowBlurOuter1" result="shadowMatrixOuter1" values="0 0 0 0 0 0 0 0 0 0 0 0 0 0 0 0 0 0 0.25 0"/>
            <feMerge>
                <feMergeNode in="shadowMatrixOuter1"/>
                <feMergeNode in="SourceGraphic"/>
            </feMerge>
        </filter>
    </defs>
    <g fill="none" fill-rule="evenodd">
        <g>
            <g filter="url(#f0mhwsudna)" transform="translate(-884 -46) translate(865 31)">
                <g>
                    <path d="M0 0H30V30H0z" transform="translate(19 15)"/>
                    <path fill="#FFF" d="M27.06 20.153c.26.447.11 1.02-.338 1.282l-11.25 6.562c-.292.17-.652.17-.944 0l-11.25-6.562c-.292-.168-.472-.479-.471-.815 0-.337.182-.647.474-.813.293-.167.652-.163.941.008L15 26.102l10.778-6.287c.447-.26 1.02-.11 1.282.338zm-1.282-5.963L15 20.477 4.222 14.19c-.29-.174-.65-.179-.944-.012-.294.166-.476.478-.476.816 0 .338.182.65.476.816l11.25 6.562c.292.17.652.17.944 0l11.25-6.562c.444-.263.592-.834.332-1.28-.26-.444-.83-.596-1.276-.34zM2.813 9.375c0-.333.177-.642.465-.81l11.25-6.562c.292-.17.652-.17.944 0l11.25 6.562c.288.168.465.477.465.81 0 .333-.177.642-.465.81l-11.25 6.562c-.292.17-.652.17-.944 0l-11.25-6.562c-.288-.168-.466-.477-.466-.81zm2.798 0L15 14.852l9.39-5.477L15 3.898 5.61 9.375z" transform="translate(19 15)"/>
                </g>
            </g>
        </g>
    </g>
</svg>
