<svg xmlns="http://www.w3.org/2000/svg" width="24" height="24" viewBox="0 0 24 24">
    <g fill="none" fill-rule="evenodd">
        <g>
            <g>
                <path d="M0 0H24V24H0z" transform="translate(-782 -220) translate(782 220)"/>
                <path fill="#000" fill-rule="nonzero" d="M20.625 4.875v14.25c0 .828-.672 1.5-1.5 1.5h-6.41c-.413 0-.75-.336-.75-.75s.337-.75.75-.75h6.41V4.875H4.875v8.557c0 .414-.336.75-.75.75s-.75-.336-.75-.75V4.875c0-.828.672-1.5 1.5-1.5h14.25c.828 0 1.5.672 1.5 1.5zM12.53 13.72c-.293-.293-.768-.293-1.06 0L6 19.19l-2.47-2.47c-.293-.293-.767-.293-1.06 0-.293.293-.293.767 0 1.06l3 3c.14.141.331.22.53.22s.39-.079.53-.22l6-6c.141-.14.22-.331.22-.53s-.079-.39-.22-.53z" transform="translate(-782 -220) translate(782 220)"/>
            </g>
        </g>
    </g>
</svg>
