<svg xmlns="http://www.w3.org/2000/svg" width="24" height="24" viewBox="0 0 24 24">
    <g fill="none" fill-rule="evenodd">
        <g>
            <g>
                <path d="M0 0H24V24H0z" transform="translate(-782 -181) translate(782 181)"/>
                <path fill="#000" fill-rule="nonzero" d="M19.5 3.75h-15C3.258 3.751 2.251 4.758 2.25 6v10.5c.001 1.242 1.008 2.249 2.25 2.25h15c1.242-.001 2.249-1.008 2.25-2.25V6c-.001-1.242-1.008-2.249-2.25-2.25zm.75 12.75c0 .414-.336.75-.75.75h-15c-.414 0-.75-.336-.75-.75V6c0-.414.336-.75.75-.75h15c.414 0 .75.336.75.75v10.5zm-4.5 4.5c0 .414-.336.75-.75.75H9c-.414 0-.75-.336-.75-.75s.336-.75.75-.75h6c.414 0 .75.336.75.75zm-.334-10.374l-4.5-3c-.23-.153-.526-.168-.77-.037-.244.13-.396.384-.396.661v6c0 .277.152.53.396.661.244.13.54.116.77-.037l4.5-3c.209-.14.334-.373.334-.624 0-.25-.125-.485-.334-.624zm-4.166 2.223V9.65l2.398 1.599-2.398 1.599z" transform="translate(-782 -181) translate(782 181)"/>
            </g>
        </g>
    </g>
</svg>
