<svg xmlns="http://www.w3.org/2000/svg" xmlns:xlink="http://www.w3.org/1999/xlink" width="60" height="60" viewBox="0 0 60 60">
    <defs>
        <linearGradient id="lr57i9ss5c" x1="0%" x2="251.184%" y1="50%" y2="50%">
            <stop offset="0%" stop-color="#80BB41"/>
            <stop offset="100%" stop-color="#C5FF85"/>
        </linearGradient>
        <filter id="dmnw9aayia" width="123.3%" height="123.3%" x="-11.7%" y="-8.3%" filterUnits="objectBoundingBox">
            <feOffset dy="2" in="SourceAlpha" result="shadowOffsetOuter1"/>
            <feGaussianBlur in="shadowOffsetOuter1" result="shadowBlurOuter1" stdDeviation="2"/>
            <feColorMatrix in="shadowBlurOuter1" values="0 0 0 0 0.0562383776 0 0 0 0 0.121895047 0 0 0 0 0.209437274 0 0 0 0.12 0"/>
        </filter>
        <rect id="5x1rw0hytb" width="60" height="60" x="0" y="0" rx="3"/>
    </defs>
    <g fill="none" fill-rule="evenodd">
        <g>
            <g transform="translate(-1058 -31) translate(1058 31)">
                <use fill="#000" filter="url(#dmnw9aayia)" xlink:href="#5x1rw0hytb"/>
                <rect width="60" height="60" fill="url(#lr57i9ss5c)" rx="3"/>
                <g>
                    <path d="M0 0H30V30H0z" transform="translate(15 15)"/>
                    <path fill="#FFF" d="M12.188 22.5c-.25 0-.488-.098-.663-.275l-6.563-6.561c-.237-.237-.33-.583-.243-.906.087-.324.34-.576.663-.663.324-.087.669.006.906.243l5.9 5.899L24.648 7.775c.367-.366.96-.366 1.326 0 .367.366.367.96 0 1.326L12.85 22.225c-.175.176-.414.275-.662.275z" transform="translate(15 15)"/>
                </g>
            </g>
        </g>
    </g>
</svg>
